<?xml version="1.0" standalone="no"?>
<!DOCTYPE svg PUBLIC "-//W3C//DTD SVG 20010904//EN"
 "http://www.w3.org/TR/2001/REC-SVG-20010904/DTD/svg10.dtd">
<svg version="1.0" xmlns="http://www.w3.org/2000/svg"
 width="2000.000000pt" height="2000.000000pt" viewBox="0 0 2000.000000 2000.000000"
 preserveAspectRatio="xMidYMid meet">

<g transform="translate(0.000000,2000.000000) scale(0.100000,-0.100000)"
fill="#000000" stroke="none">
<path d="M6015 15869 c-501 -68 -888 -421 -1016 -926 -102 -405 -26 -827 217
-1195 62 -93 268 -299 360 -360 233 -154 466 -228 719 -228 612 0 1112 463
1196 1105 16 120 6 363 -19 480 -108 503 -460 914 -913 1066 -50 17 -125 37
-167 45 -98 19 -287 26 -377 13z"/>
<path d="M8713 12972 c-10 -17 -10 -24 0 -34 6 -7 13 -26 15 -43 2 -16 9 -33
15 -37 7 -4 9 -8 5 -8 -10 0 23 -83 36 -92 6 -4 8 -8 3 -8 -12 0 58 -131 122
-228 195 -290 487 -491 841 -577 102 -25 354 -31 475 -11 259 43 510 168 704
351 96 91 224 251 214 268 -3 7 -3 9 2 5 11 -11 38 29 29 44 -4 6 -3 8 3 5 6
-4 18 8 26 26 9 18 12 33 7 35 -14 5 -12 39 1 48 8 4 9 -1 4 -17 -7 -24 -7
-24 13 -4 10 11 17 24 15 28 -3 5 -8 6 -11 3 -3 -3 -12 0 -20 7 -13 9 -14 9
-8 0 5 -10 -4 -13 -38 -13 -24 0 -46 4 -48 10 -2 5 -66 14 -143 19 -77 6 -210
20 -295 31 -85 11 -183 20 -217 20 -34 0 -63 4 -65 10 -1 5 -66 14 -143 19
-77 6 -210 20 -295 31 -85 11 -183 20 -217 20 -34 0 -63 4 -65 10 -1 5 -66 14
-143 19 -77 6 -210 20 -295 31 -85 11 -183 20 -217 20 -34 0 -63 5 -65 10 -2
6 -54 13 -118 16 -109 6 -116 5 -127 -14z m61 -27 c-4 -8 -8 -15 -10 -15 -2 0
-4 7 -4 15 0 8 4 15 10 15 5 0 7 -7 4 -15z m71 8 c-22 -3 -43 -10 -47 -16 -5
-8 -8 -8 -8 -1 0 19 12 24 54 22 l41 -1 -40 -4z m738 -80 c-13 -2 -33 -2 -45
0 -13 2 -3 4 22 4 25 0 35 -2 23 -4z m720 -80 c-13 -2 -33 -2 -45 0 -13 2 -3
4 22 4 25 0 35 -2 23 -4z m720 -80 c-13 -2 -33 -2 -45 0 -13 2 -3 4 22 4 25 0
35 -2 23 -4z m151 -81 c3 -5 -1 -9 -9 -9 -8 0 -12 4 -9 9 3 4 7 8 9 8 2 0 6
-4 9 -8z"/>
<path d="M11221 12776 c-23 -27 12 -58 36 -31 5 4 2 5 -6 0 -11 -6 -13 -4 -7
10 5 15 4 16 -9 5 -18 -15 -20 1 -3 18 7 7 9 12 6 12 -3 0 -11 -6 -17 -14z"/>
<path d="M7420 12505 c-8 -3 -451 -45 -985 -95 -611 -57 -1002 -97 -1057 -110
-455 -101 -774 -514 -863 -1115 -17 -114 -24 -494 -41 -2180 -6 -600 -5 -680
10 -765 88 -500 461 -888 958 -996 40 -9 134 -18 208 -21 l135 -6 375 188
c206 103 411 211 455 240 175 114 324 270 431 452 53 89 134 275 134 306 0 13
-25 16 -162 19 -146 4 -171 7 -243 32 -240 83 -417 277 -476 522 -26 107 -26
92 31 1179 88 1665 100 1868 105 1873 8 9 112 -77 187 -156 138 -144 175 -208
331 -562 374 -849 517 -1182 517 -1202 0 -13 -7 -61 -15 -108 -8 -47 -17 -103
-20 -125 -2 -22 -9 -66 -14 -98 -6 -32 -8 -64 -4 -72 3 -8 0 -15 -6 -15 -6 0
-8 -7 -4 -16 5 -14 8 -13 20 7 l14 24 -5 -25 c-3 -14 -6 -31 -6 -39 0 -11 -3
-11 -15 -1 -13 11 -14 10 -9 -3 4 -12 14 -15 33 -11 18 4 33 0 44 -10 8 -9 20
-16 26 -16 6 0 11 -4 11 -10 0 -5 12 -10 28 -10 35 0 206 -42 210 -52 2 -5 10
-8 18 -8 8 0 14 -4 14 -10 0 -5 12 -10 28 -10 15 0 45 -7 67 -15 22 -8 57 -14
78 -15 26 0 37 -4 37 -15 0 -8 6 -15 14 -15 7 0 27 -7 42 -15 16 -8 46 -15 67
-15 20 0 37 -4 37 -10 0 -5 21 -10 46 -10 37 0 53 -6 81 -30 25 -23 44 -30 73
-30 22 0 40 -4 40 -10 0 -5 24 -10 54 -10 35 0 60 -5 70 -15 8 -8 19 -15 25
-15 6 0 11 -4 11 -10 0 -5 12 -10 28 -10 35 0 206 -42 210 -52 2 -5 10 -8 18
-8 8 0 14 -4 14 -10 0 -5 12 -10 28 -10 15 0 45 -7 67 -15 22 -8 57 -14 78
-15 26 0 37 -4 37 -15 0 -8 6 -15 14 -15 7 0 27 -7 42 -15 16 -8 46 -15 67
-15 20 0 37 -4 37 -10 0 -5 21 -10 47 -10 37 0 53 -6 75 -27 19 -18 43 -29 77
-33 28 -3 47 -2 45 2 -3 5 -1 14 4 21 5 7 40 131 77 277 282 1109 413 1635
410 1640 -11 17 -154 105 -241 149 -122 60 -202 86 -464 151 -171 43 -220 51
-297 52 -57 0 -96 4 -101 11 -5 7 -56 124 -113 262 -57 137 -125 286 -152 330
-177 295 -430 493 -734 575 -60 17 -115 22 -238 25 -88 2 -167 2 -175 0z m205
-2895 c3 -5 -1 -10 -9 -10 -9 0 -16 5 -16 10 0 6 4 10 9 10 6 0 13 -4 16 -10z
m800 -240 c3 -5 -1 -10 -9 -10 -9 0 -16 5 -16 10 0 6 4 10 9 10 6 0 13 -4 16
-10z m240 -80 c3 -5 -1 -10 -9 -10 -9 0 -16 5 -16 10 0 6 4 10 9 10 6 0 13 -4
16 -10z"/>
<path d="M7390 9610 c0 -5 5 -10 11 -10 5 0 7 5 4 10 -3 6 -8 10 -11 10 -2 0
-4 -4 -4 -10z"/>
<path d="M10623 9338 c-1 -10 3 -18 9 -18 5 0 7 -7 4 -16 -6 -17 263 -1218
293 -1305 114 -333 408 -609 769 -723 176 -55 207 -57 1297 -54 l999 3 -139
54 c-205 78 -436 206 -419 232 3 5 -2 6 -11 3 -11 -5 -51 29 -135 114 -66 66
-120 124 -120 129 0 4 9 -3 20 -17 11 -14 20 -21 20 -17 0 16 -35 54 -47 50
-15 -5 -36 34 -27 50 4 6 4 9 -1 5 -14 -13 -47 13 -42 33 3 10 2 17 -3 14 -16
-10 -75 99 -63 118 3 6 1 7 -5 3 -23 -14 -131 250 -148 361 -3 24 -9 43 -13
43 -3 0 -7 10 -7 23 -4 50 -9 67 -20 63 -6 -2 -16 -1 -23 3 -8 5 -6 12 8 25
19 17 18 56 -1 56 -6 0 -7 -7 -4 -16 3 -8 2 -12 -4 -9 -6 3 -10 14 -10 24 0
17 -48 41 -82 41 -9 0 -21 7 -28 15 -7 8 -28 15 -46 15 -19 0 -34 4 -34 9 0
10 -102 45 -132 46 -9 0 -28 11 -41 24 -14 12 -31 20 -37 16 -6 -4 -22 0 -35
9 -13 9 -35 16 -49 16 -14 0 -28 5 -31 10 -3 6 -17 10 -31 10 -14 0 -37 8 -51
17 -34 23 -91 43 -121 43 -12 0 -30 4 -40 9 -63 33 -135 62 -180 71 -29 7 -59
18 -66 26 -8 8 -26 14 -40 14 -14 0 -26 3 -26 8 0 7 -57 25 -122 39 -15 3 -33
11 -39 19 -6 8 -27 14 -45 14 -19 0 -34 4 -34 9 0 10 -102 45 -132 46 -9 0
-28 11 -41 24 -14 12 -31 20 -37 16 -6 -4 -22 0 -35 9 -13 9 -35 16 -49 16
-14 0 -28 5 -31 10 -3 6 -17 10 -31 10 -14 0 -37 8 -51 17 -34 23 -91 43 -121
43 -12 0 -30 4 -40 9 -63 33 -135 62 -180 71 -29 7 -58 18 -66 25 -19 19 -52
15 -53 -7z m44 -64 c-3 -3 -12 -4 -19 -1 -8 3 -5 6 6 6 11 1 17 -2 13 -5z
m373 -84 c0 -5 -4 -10 -9 -10 -6 0 -13 5 -16 10 -3 6 1 10 9 10 9 0 16 -4 16
-10z m240 -85 c0 -8 -4 -15 -9 -15 -5 0 -14 7 -21 15 -10 13 -9 15 9 15 12 0
21 -6 21 -15z m880 -315 c0 -5 -4 -10 -9 -10 -6 0 -13 5 -16 10 -3 6 1 10 9
10 9 0 16 -4 16 -10z m680 -340 c6 -11 8 -20 6 -20 -3 0 -10 9 -16 20 -6 11
-8 20 -6 20 3 0 10 -9 16 -20z"/>
<path d="M12810 8590 c0 -5 5 -10 11 -10 5 0 7 5 4 10 -3 6 -8 10 -11 10 -2 0
-4 -4 -4 -10z"/>
<path d="M12827 8513 c-4 -3 -7 -11 -7 -17 0 -6 5 -5 12 2 6 6 9 14 7 17 -3 3
-9 2 -12 -2z"/>
<path d="M13160 7828 c0 -9 -6 -19 -12 -21 -10 -4 -10 -6 0 -6 14 -1 28 26 18
36 -3 4 -6 -1 -6 -9z"/>
<path d="M13252 7680 c18 -22 38 -40 43 -40 6 0 6 3 0 8 -6 4 -21 22 -34 40
-12 17 -27 32 -32 32 -6 0 5 -18 23 -40z"/>
<path d="M13310 7620 c0 -5 5 -10 11 -10 5 0 7 5 4 10 -3 6 -8 10 -11 10 -2 0
-4 -4 -4 -10z"/>
<path d="M13337 7603 c-3 -5 4 -15 16 -23 21 -12 21 -12 7 6 -8 10 -15 20 -16
22 -1 2 -4 -1 -7 -5z"/>
<path d="M13380 7556 c0 -2 7 -6 15 -10 8 -3 15 -1 15 4 0 6 -7 10 -15 10 -8
0 -15 -2 -15 -4z"/>
<path d="M7338 7223 c7 -3 16 -2 19 1 4 3 -2 6 -13 5 -11 0 -14 -3 -6 -6z"/>
<path d="M11688 6480 c-289 -52 -435 -201 -508 -515 -17 -74 -25 -524 -10
-631 46 -355 191 -540 470 -601 106 -23 330 -23 435 1 189 42 318 139 393 296
78 164 96 292 89 633 -5 288 -18 360 -88 505 -72 149 -200 251 -374 298 -69
18 -333 28 -407 14z m316 -336 c147 -51 203 -220 193 -589 -6 -218 -19 -293
-64 -377 -50 -91 -142 -138 -273 -138 -141 0 -228 48 -280 154 -48 97 -63 217
-57 456 8 345 59 458 227 505 67 18 185 14 254 -11z"/>
<path d="M13245 6474 c-92 -19 -220 -82 -284 -140 -97 -87 -163 -207 -198
-357 -22 -93 -24 -548 -4 -672 42 -259 152 -436 323 -519 121 -59 325 -87 478
-66 225 31 388 129 483 291 l37 64 0 267 0 268 -265 0 -265 0 0 -150 0 -150
105 0 105 0 0 -59 c0 -57 -2 -61 -51 -115 -70 -76 -131 -99 -254 -94 -75 3
-101 9 -156 35 -73 34 -93 57 -135 153 -28 65 -28 66 -32 320 -4 269 4 361 40
457 44 120 183 181 346 153 133 -22 201 -93 218 -227 l6 -53 169 0 169 0 0 43
c-1 66 -26 189 -49 243 -51 115 -172 223 -308 274 -132 50 -333 64 -478 34z"/>
<path d="M14825 6475 c-310 -57 -466 -253 -504 -634 -22 -215 -8 -502 33 -665
73 -287 239 -424 554 -458 275 -29 537 54 651 204 114 152 161 352 161 692 0
251 -24 399 -85 533 -107 234 -309 344 -625 342 -63 0 -146 -7 -185 -14z m345
-336 c137 -59 185 -201 184 -544 0 -329 -42 -451 -178 -523 -46 -25 -61 -27
-161 -27 -100 0 -115 2 -160 27 -139 73 -175 183 -175 527 0 393 56 521 243
561 66 14 190 4 247 -21z"/>
<path d="M4350 5605 l0 -875 180 0 180 0 2 348 3 347 308 3 307 2 0 -350 0
-350 180 0 180 0 0 875 0 875 -180 0 -180 0 0 -365 0 -365 -310 0 -310 0 0
365 0 365 -180 0 -180 0 0 -875z"/>
<path d="M6013 5843 c3 -696 2 -675 63 -802 39 -79 159 -197 251 -244 224
-116 540 -110 751 15 92 54 184 152 225 238 19 41 40 99 46 128 7 35 11 263
11 678 l0 624 -177 -2 -178 -3 -5 -620 -5 -620 -23 -48 c-29 -58 -80 -101
-152 -128 -80 -30 -224 -24 -295 13 -63 33 -98 69 -127 133 l-23 50 -3 613 -3
612 -180 0 -180 0 4 -637z"/>
<path d="M7710 5783 c0 -581 3 -709 15 -761 28 -120 81 -190 177 -235 101 -47
144 -52 443 -52 266 0 283 1 347 23 130 45 223 137 269 267 27 76 37 252 19
334 -23 105 -91 204 -179 261 l-23 16 64 64 c101 102 137 202 124 348 -18 197
-111 331 -272 391 -88 33 -201 41 -601 41 l-383 0 0 -697z m808 353 c45 -24
71 -60 81 -112 17 -91 -10 -168 -72 -201 -27 -15 -65 -18 -244 -21 l-213 -4 0
176 0 176 210 0 c162 0 217 -3 238 -14z m29 -679 c55 -30 77 -86 78 -197 0
-115 -17 -153 -85 -188 -43 -22 -54 -23 -205 -20 -248 6 -258 15 -263 245 -2
85 -1 161 2 169 5 14 35 15 224 12 184 -3 222 -6 249 -21z"/>
<path d="M9910 5803 c0 -722 3 -760 50 -852 48 -94 121 -152 245 -192 67 -22
88 -23 433 -27 l362 -4 0 161 0 160 -312 3 c-340 3 -350 5 -392 61 -21 28 -21
37 -24 698 l-2 669 -180 0 -180 0 0 -677z"/>
<path d="M6397 4266 c-85 -32 -107 -77 -107 -226 0 -130 16 -173 77 -211 31
-19 52 -24 109 -24 125 0 184 61 184 189 l0 67 -87 -3 c-80 -3 -88 -5 -88 -23
0 -17 8 -20 58 -23 56 -3 57 -3 57 -33 0 -37 -23 -83 -52 -103 -30 -21 -117
-21 -147 0 -36 25 -51 75 -51 164 0 134 32 180 126 180 55 0 97 -23 109 -60 5
-15 15 -20 41 -20 39 0 42 11 15 56 -42 68 -159 102 -244 70z"/>
<path d="M9655 4265 c-22 -8 -52 -27 -66 -44 -45 -49 -61 -173 -38 -283 20
-94 105 -148 208 -134 108 15 161 79 161 193 l0 63 -90 0 c-89 0 -90 0 -90
-25 0 -24 3 -25 55 -25 65 0 72 -9 55 -69 -14 -53 -56 -81 -122 -81 -39 0 -54
6 -80 29 l-33 29 0 122 0 122 33 29 c26 23 41 29 80 29 53 0 107 -27 117 -59
4 -15 15 -21 36 -21 73 0 3 107 -84 129 -59 14 -93 13 -142 -4z"/>
<path d="M10315 4266 c-87 -32 -120 -105 -113 -251 7 -157 54 -210 183 -210
88 0 131 22 163 85 19 37 22 60 22 149 0 123 -19 177 -76 211 -44 28 -127 35
-179 16z m148 -66 c32 -26 47 -75 47 -160 0 -130 -27 -171 -115 -178 -52 -4
-56 -3 -91 32 l-36 36 4 116 3 116 33 29 c41 37 114 41 155 9z"/>
<path d="M11555 4268 c-75 -26 -109 -94 -82 -161 17 -41 53 -62 162 -96 82
-27 105 -44 105 -82 0 -43 -41 -69 -110 -69 -62 0 -103 22 -115 61 -5 15 -14
19 -33 17 -69 -8 -9 -105 79 -128 51 -14 137 -7 180 15 41 22 62 59 62 112 0
63 -35 94 -145 127 -108 33 -128 48 -128 91 0 46 29 65 98 65 43 0 58 -5 77
-25 14 -13 25 -29 25 -35 0 -5 14 -10 30 -10 40 0 40 28 0 73 -44 51 -132 70
-205 45z"/>
<path d="M5084 4255 c-14 -35 3 -45 76 -45 l70 0 0 -200 0 -200 30 0 30 0 0
200 0 200 70 0 70 0 0 30 0 30 -170 0 c-142 0 -172 -2 -176 -15z"/>
<path d="M5780 4248 c-33 -77 -160 -414 -160 -425 0 -8 12 -13 29 -13 26 0 31
6 47 50 l18 50 112 0 111 0 21 -51 c19 -45 24 -50 49 -47 19 2 27 8 25 18 -2
8 -40 111 -85 228 l-81 212 -38 0 c-30 0 -40 -5 -48 -22z m96 -168 l42 -110
-90 0 c-68 0 -89 3 -86 13 35 99 83 216 87 212 2 -3 24 -55 47 -115z"/>
<path d="M6960 4041 l0 -231 150 0 150 0 0 25 0 25 -115 0 -115 0 -2 203 -3
202 -32 3 -33 3 0 -230z"/>
<path d="M7540 4040 l0 -230 30 0 30 0 0 230 0 230 -30 0 -30 0 0 -230z"/>
<path d="M7920 4040 l0 -230 30 0 30 0 0 165 c0 91 3 165 8 165 4 0 56 -75
116 -165 99 -149 112 -165 137 -165 l29 0 0 230 0 230 -30 0 -30 0 -2 -172 -3
-173 -114 173 c-103 156 -116 172 -142 172 l-29 0 0 -230z"/>
<path d="M8590 4040 l0 -230 155 0 155 0 0 25 0 24 -122 3 -123 3 0 75 0 75
113 3 c112 3 112 3 112 27 l0 25 -115 0 -116 0 3 73 3 72 118 3 117 3 0 24 0
25 -150 0 -150 0 0 -230z"/>
<path d="M10870 4040 l0 -230 155 0 155 0 0 25 0 24 -122 3 -123 3 0 75 0 75
113 3 c112 3 112 3 112 27 l0 25 -115 0 -116 0 3 73 3 72 123 3 c121 3 123 3
120 25 -3 21 -7 22 -155 25 l-153 3 0 -231z"/>
<path d="M12460 4040 l0 -231 33 3 32 3 3 98 3 97 114 0 115 0 0 -100 0 -100
30 0 30 0 0 230 0 230 -30 0 -30 0 0 -100 0 -100 -115 0 -114 0 -3 98 -3 97
-32 3 -33 3 0 -231z"/>
<path d="M13140 4040 l0 -230 155 0 155 0 0 25 0 24 -122 3 -123 3 0 75 0 75
113 3 c112 3 112 3 112 27 l0 25 -115 0 -116 0 3 73 3 72 123 3 c121 3 123 3
120 25 -3 21 -7 22 -155 25 l-153 3 0 -231z"/>
<path d="M13750 4040 l0 -230 30 0 29 0 3 93 3 92 56 3 56 3 54 -93 c49 -84
57 -93 87 -96 17 -2 32 0 32 4 0 4 -23 47 -51 96 -28 49 -50 91 -48 92 2 2 14
9 27 15 57 30 80 127 43 187 -31 51 -73 64 -205 64 l-116 0 0 -230z m251 154
c32 -33 30 -90 -5 -120 -24 -21 -37 -24 -107 -24 l-79 0 0 78 c0 43 3 82 8 86
4 4 42 6 84 4 63 -2 82 -7 99 -24z"/>
<path d="M14390 4040 l0 -230 155 0 155 0 0 25 0 25 -125 0 -125 0 0 80 0 80
116 0 c114 0 115 0 112 23 -3 21 -7 22 -115 25 l-113 3 0 74 0 75 120 0 120 0
0 25 0 25 -150 0 -150 0 0 -230z"/>
</g>
</svg>
